# Blender v2.79 (sub 0) OBJ File: ''
# www.blender.org
mtllib test_car.mtl
o Cylinder
v 1.124389 -0.005026 -0.148582
v -0.870751 0.010797 -0.010143
v 1.111071 0.016531 -0.342972
v -0.884069 0.032353 -0.204532
v 1.098601 0.075684 -0.529452
v -0.896539 0.091507 -0.391012
v 1.087456 0.170162 -0.700856
v -0.907684 0.185985 -0.562416
v 1.078067 0.296333 -0.850596
v -0.917073 0.312156 -0.712156
v 1.070792 0.449348 -0.972919
v -0.924348 0.465171 -0.834479
v 1.065913 0.623327 -1.063124
v -0.929227 0.639150 -0.924684
v 1.063616 0.811585 -1.117743
v -0.931524 0.827407 -0.979303
v 1.063990 1.006885 -1.134679
v -0.931150 1.022708 -0.996239
v 1.067020 1.201725 -1.113280
v -0.928120 1.217548 -0.974840
v 1.072590 1.388615 -1.054368
v -0.922550 1.404438 -0.915929
v 1.080486 1.560373 -0.960209
v -0.914654 1.576196 -0.821769
v 1.090404 1.710400 -0.834419
v -0.904736 1.726223 -0.695979
v 1.101963 1.832929 -0.681833
v -0.893177 1.848752 -0.543393
v 1.114720 1.923252 -0.508315
v -0.880420 1.939075 -0.369875
v 1.128183 1.977898 -0.320534
v -0.866957 1.993721 -0.182094
v 1.141836 1.994767 -0.125704
v -0.853304 2.010590 0.012736
v 1.155154 1.973210 0.068686
v -0.839987 1.989033 0.207125
v 1.167624 1.914056 0.255166
v -0.827516 1.929879 0.393605
v 1.178768 1.819579 0.426569
v -0.816372 1.835402 0.565009
v 1.188158 1.693408 0.576310
v -0.806982 1.709231 0.714750
v 1.195432 1.540392 0.698632
v -0.799708 1.556215 0.837072
v 1.200311 1.366413 0.788837
v -0.794829 1.382236 0.927277
v 1.202609 1.178156 0.843457
v -0.792532 1.193978 0.981896
v 1.202235 0.982854 0.860392
v -0.792905 0.998677 0.998832
v 1.199205 0.788015 0.838993
v -0.795935 0.803838 0.977433
v 1.193635 0.601125 0.780081
v -0.801505 0.616948 0.918521
v 1.185739 0.429367 0.685921
v -0.809401 0.445189 0.824361
v 1.175821 0.279340 0.560131
v -0.819319 0.295163 0.698571
v 1.164261 0.156811 0.407546
v -0.830879 0.172634 0.545985
v 1.151505 0.066488 0.234027
v -0.843635 0.082311 0.372467
v 1.138041 0.011843 0.046245
v -0.857099 0.027665 0.184685
vn -0.0155 -0.9939 -0.1092
vn -0.0284 -0.9534 -0.3005
vn -0.0403 -0.8762 -0.4803
vn -0.0506 -0.7653 -0.6417
vn -0.0590 -0.6250 -0.7784
vn -0.0651 -0.4608 -0.8851
vn -0.0687 -0.2788 -0.9579
vn -0.0696 -0.0861 -0.9939
vn -0.0679 0.1100 -0.9916
vn -0.0636 0.3018 -0.9513
vn -0.0568 0.4819 -0.8744
vn -0.0479 0.6436 -0.7638
vn -0.0371 0.7806 -0.6240
vn -0.0249 0.8875 -0.4601
vn -0.0117 0.9603 -0.2786
vn 0.0019 0.9963 -0.0864
vn 0.0155 0.9939 0.1092
vn 0.0284 0.9534 0.3005
vn 0.0403 0.8762 0.4803
vn 0.0506 0.7653 0.6417
vn 0.0590 0.6250 0.7784
vn 0.0651 0.4608 0.8851
vn 0.0687 0.2788 0.9579
vn 0.0696 0.0860 0.9939
vn 0.0679 -0.1100 0.9916
vn 0.0636 -0.3018 0.9513
vn 0.0568 -0.4819 0.8744
vn 0.0479 -0.6436 0.7638
vn 0.0371 -0.7806 0.6240
vn 0.0249 -0.8875 0.4601
vn -0.9976 0.0079 0.0692
vn 0.0117 -0.9603 0.2786
vn -0.0019 -0.9963 0.0864
vn 0.9976 -0.0079 -0.0692
usemtl None
s off
f 1//1 2//1 4//1 3//1
f 3//2 4//2 6//2 5//2
f 5//3 6//3 8//3 7//3
f 7//4 8//4 10//4 9//4
f 9//5 10//5 12//5 11//5
f 11//6 12//6 14//6 13//6
f 13//7 14//7 16//7 15//7
f 15//8 16//8 18//8 17//8
f 17//9 18//9 20//9 19//9
f 19//10 20//10 22//10 21//10
f 21//11 22//11 24//11 23//11
f 23//12 24//12 26//12 25//12
f 25//13 26//13 28//13 27//13
f 27//14 28//14 30//14 29//14
f 29//15 30//15 32//15 31//15
f 31//16 32//16 34//16 33//16
f 33//17 34//17 36//17 35//17
f 35//18 36//18 38//18 37//18
f 37//19 38//19 40//19 39//19
f 39//20 40//20 42//20 41//20
f 41//21 42//21 44//21 43//21
f 43//22 44//22 46//22 45//22
f 45//23 46//23 48//23 47//23
f 47//24 48//24 50//24 49//24
f 49//25 50//25 52//25 51//25
f 51//26 52//26 54//26 53//26
f 53//27 54//27 56//27 55//27
f 55//28 56//28 58//28 57//28
f 57//29 58//29 60//29 59//29
f 59//30 60//30 62//30 61//30
f 4//31 2//31 64//31 62//31 60//31 58//31 56//31 54//31 52//31 50//31 48//31 46//31 44//31 42//31 40//31 38//31 36//31 34//31 32//31 30//31 28//31 26//31 24//31 22//31 20//31 18//31 16//31 14//31 12//31 10//31 8//31 6//31
f 61//32 62//32 64//32 63//32
f 63//33 64//33 2//33 1//33
f 1//34 3//34 5//34 7//34 9//34 11//34 13//34 15//34 17//34 19//34 21//34 23//34 25//34 27//34 29//34 31//34 33//34 35//34 37//34 39//34 41//34 43//34 45//34 47//34 49//34 51//34 53//34 55//34 57//34 59//34 61//34 63//34
